<svg width="70" height="70" viewBox="0 0 70 70" fill="none" xmlns="http://www.w3.org/2000/svg">
<g clip-path="url(#clip0)">
<path d="M26.6603 0.150475C18.676 1.10751 11.2795 4.70321 5.674 10.3224C4.85369 11.1427 3.74627 12.3458 3.24041 12.9884C2.09197 14.4102 0.109552 17.3634 0.177911 17.5411C0.232599 17.7052 -0.300605 17.5684 17.2951 22.0118C24.8146 23.9259 31.008 25.5118 31.0763 25.5665C31.131 25.6075 29.5588 31.7872 27.59 39.2794L24.008 52.9102H16.8029H9.61151L4.85369 59.1446C2.24236 62.5763 0.082208 65.4884 0.0548642 65.6114C0.000176721 65.8712 3.33611 68.4278 3.54119 68.2911C3.62322 68.2501 5.44158 65.8985 7.60174 63.0548C9.74822 60.2247 11.6213 57.7911 11.7443 57.6544C11.9631 57.4356 12.3732 57.422 17.3908 57.4493L22.7912 57.4903L21.5881 62.0704C20.9318 64.586 20.426 66.6915 20.4806 66.7325C20.6994 66.9239 24.6232 67.8536 24.7326 67.7306C24.7873 67.6622 25.4025 65.42 26.0998 62.754C26.7971 60.088 27.3849 57.7911 27.426 57.6544C27.4943 57.4356 28.1779 57.422 39.2795 57.422H51.0646L54.2502 62.6583C56.0002 65.5294 57.4767 67.963 57.5451 68.0723C57.6408 68.2091 58.0373 68.0177 59.3498 67.2247C60.2795 66.6505 61.1545 66.1036 61.2775 66.0079C61.4963 65.8438 61.2228 65.3516 58.3928 60.7169L55.2619 55.6036L58.5705 52.7188C60.3888 51.1329 63.6974 48.2481 65.9396 46.2931C68.1681 44.3516 70.0002 42.6973 70.0002 42.629C70.0002 42.4649 67.2248 39.252 67.1154 39.2794C67.0607 39.293 63.506 42.3692 59.2267 46.1153L51.4201 52.9102H40.0451C29.2853 52.9102 28.6838 52.8966 28.7385 52.6641C28.7795 52.5411 30.3244 46.6485 32.1974 39.5802C34.0568 32.5118 35.5881 26.7149 35.6017 26.7013C35.6154 26.6876 42.3967 28.3966 50.6545 30.4884C58.926 32.5938 65.7346 34.3165 65.8029 34.3165C65.9533 34.3165 65.9123 33.0313 65.6935 31.172C65.0373 25.5391 63.1506 20.3985 60.0197 15.6817C54.5783 7.50594 46.1974 2.09188 36.3674 0.396569C34.9865 0.164147 33.9885 0.0957876 31.1721 0.0547719C29.258 0.0411001 27.2209 0.0821157 26.6603 0.150475ZM39.9631 3.48641C44.6525 4.70321 47.756 10.3907 48.7404 19.5509C48.9865 21.8751 49.1779 27.0704 49.0138 27.0704C48.6994 27.0704 19.551 19.6192 19.551 19.5372C19.551 19.3595 22.3127 15.5313 23.5705 13.9727C29.9279 6.05672 35.6974 2.37899 39.9631 3.48641Z" fill="#2857C7"/>
</g>
<defs>
<clipPath id="clip0">
<rect width="70" height="70" fill="white"/>
</clipPath>
</defs>
</svg>
