<svg width="70" height="70" viewBox="0 0 70 70" fill="none" xmlns="http://www.w3.org/2000/svg">
<g clip-path="url(#clip0)">
<path d="M27.8367 0.490001C26.32 1.07333 24.8033 2.54333 24.0567 4.13L23.4967 5.32L19.6233 5.41333C15.96 5.48333 15.68 5.53 14.5833 6.11333C12.2967 7.32667 11.06 9.24 10.8033 12.0167L10.6633 13.5333H6.83667C2.68333 13.5333 2.26333 13.6267 1.14333 14.8633C0.14 15.9367 0 16.7767 0 21.6767C0 25.97 0.0233333 26.3433 0.536667 27.3C2.07667 30.38 6.32333 30.31 7.72333 27.2067C8.09667 26.3667 8.16667 25.62 8.16667 21.1633V16.1H9.45H10.71L10.78 35.0467C10.85 53.7833 10.85 54.04 11.34 55.09C12.0167 56.56 13.09 57.7033 14.3967 58.3567C15.0033 58.66 15.5633 58.94 15.6333 58.9867C15.68 59.01 13.2767 61.5067 10.2667 64.5167L4.78333 70H6.76667H8.75L14.1167 64.6333L19.4833 59.2667H35.1633H50.82L56.0467 64.6333L61.2967 70H63.2567H65.2167L59.7333 64.5167C56.7233 61.5067 54.32 59.01 54.3667 58.9633C54.4367 58.9167 54.8567 58.73 55.3 58.5667C56.4667 58.0767 57.7967 56.7933 58.52 55.44L59.15 54.25L59.22 35.1633L59.2667 16.1H60.5267H61.7867L61.88 21.4433L61.95 26.7867L62.65 27.79C64.0733 29.7967 66.7567 30.1933 68.53 28.63C69.9067 27.4167 70 26.95 70 21.5367C70 17.1267 69.9533 16.6367 69.51 15.7033C69.1833 15.0267 68.6933 14.49 68.04 14.1167C67.0833 13.5567 66.8733 13.5333 63.1633 13.5333H59.2667V12.4133C59.2667 10.36 58.66 8.93666 57.2133 7.46667C55.37 5.67 54.3667 5.36667 50.05 5.36667H46.7133L46.0133 4.13C45.01 2.33333 44.2867 1.58666 42.8867 0.816668L41.65 0.116668L35.35 0.0700002C29.4933 0.0233327 28.9567 0.0466664 27.8367 0.490001ZM54.74 8.77333C55.09 9.03 55.6033 9.54333 55.86 9.89333C56.35 10.5233 56.35 10.6867 56.35 32.2933V54.0633L55.72 54.88C54.4367 56.56 55.58 56.4667 34.9533 56.4667H16.45L15.5167 55.93C15.0033 55.6267 14.3733 54.9967 14.07 54.4833L13.5333 53.55V32.3633C13.5333 11.7133 13.5567 11.1533 14 10.2667C14.42 9.42667 15.2833 8.65666 16.1 8.33C16.2867 8.26 24.92 8.21333 35.28 8.23666C53.9 8.28333 54.11 8.28333 54.74 8.77333ZM5.36667 18.7833V21.4667H4.08333H2.8V19.1567C2.8 17.01 2.84667 16.8 3.31333 16.4733C3.59333 16.2633 4.17667 16.1 4.59667 16.1H5.36667V18.7833ZM66.6867 16.4733C67.1533 16.8 67.2 17.01 67.2 19.1567V21.4667H65.9167H64.6333V18.7833V16.1H65.4033C65.8233 16.1 66.4067 16.2633 66.6867 16.4733ZM5.36667 25.1067C5.36667 26.2967 5.01667 26.8333 4.2 26.8333C3.26667 26.8333 2.8 26.2733 2.8 25.1767V24.2667H4.08333H5.36667V25.1067ZM67.2 25.27C67.2 26.4367 66.8967 26.8333 66.01 26.8333C65.1 26.8333 64.6333 26.25 64.6333 25.1767V24.2667H65.9167H67.2V25.27Z" fill="#2857C7"/>
<path d="M18.3166 13.9767C16.24 15.26 16.1233 15.7967 16.1233 24.0333C16.1233 27.8133 16.2166 31.3367 16.3333 31.8267C16.6133 33.0867 17.22 33.8567 18.4566 34.4867L19.4833 35L35.3733 34.9533L51.2633 34.8833L52.1266 34.2067C53.83 32.9233 53.9 32.55 53.9 24.3833C53.9 20.3467 53.8066 16.8 53.6666 16.3567C53.41 15.4467 52.4766 14.35 51.52 13.86C51.0066 13.58 48.23 13.5333 34.9533 13.5333C19.8566 13.5333 18.97 13.5567 18.3166 13.9767ZM50.5866 16.4733C51.1 16.8233 51.1 16.8467 51.1 24.2433C51.1 29.68 51.03 31.71 50.82 31.92C50.6333 32.1067 49.35 32.2 46.55 32.2H42.5833L42.1166 31.3367C41.23 29.7267 40.9033 29.6333 35.0466 29.6333C29.1433 29.6333 28.7933 29.7267 28 31.2667L27.5333 32.2H23.59C20.3 32.2 19.5766 32.13 19.2733 31.8267C18.9466 31.5233 18.9 30.4967 18.9 24.2433C18.9 17.3367 18.9233 17.01 19.3666 16.5667C19.8333 16.1 20.1366 16.1 34.9533 16.1C48.2533 16.1 50.12 16.1467 50.5866 16.4733Z" fill="#2857C7"/>
<path d="M19.7402 40.7165C18.6669 41.0898 17.3835 42.2798 16.8235 43.3998C15.4702 46.0598 16.5435 49.3031 19.2035 50.5398C22.9135 52.2665 26.8802 49.7931 26.8802 45.7565C26.8802 42.0698 23.2169 39.4798 19.7402 40.7165Z" fill="#2857C7"/>
<path d="M46.69 40.6701C46.27 40.8334 45.5 41.3234 44.9867 41.7434C41.2534 44.8934 43.5867 51.0768 48.4867 51.1001C51.5667 51.1001 53.76 48.8834 53.7834 45.7101C53.7834 44.4034 53.69 44.0068 53.0834 43.0268C51.7767 40.9268 48.86 39.8534 46.69 40.6701Z" fill="#2857C7"/>
<path d="M29.6333 43.0502V44.3335H35H40.3666V43.0502V41.7668H35H29.6333V43.0502Z" fill="#2857C7"/>
<path d="M29.6333 48.4169V49.7002H35H40.3666V48.4169V47.1335H35H29.6333V48.4169Z" fill="#2857C7"/>
<path d="M18.8999 63.2333V64.6333H34.9999H51.0999V63.2333V61.8333H34.9999H18.8999V63.2333Z" fill="#2857C7"/>
<path d="M13.5334 68.6V70H35.0001H56.4668V68.6V67.2H35.0001H13.5334V68.6Z" fill="#2857C7"/>
</g>
<defs>
<clipPath id="clip0">
<rect width="70" height="70" fill="white"/>
</clipPath>
</defs>
</svg>
