<svg width="70" height="70" viewBox="0 0 70 70" fill="none" xmlns="http://www.w3.org/2000/svg">
<path d="M60.8535 1.18921C60.1289 2.1189 58.5019 3.63647 57.4082 4.37475C54.9473 6.0564 51.9805 7.32788 46.0059 9.22827C39.457 11.3064 36.7227 12.3044 33.7422 13.6716C26.3867 17.0896 20.7813 22.1208 16.9531 28.7654C12.4004 36.6814 13.084 44.488 18.8672 50.6404C21.3418 53.2654 24.541 55.2068 27.3027 55.7673L28.4375 55.9997L26.3457 57.3806C18.9355 62.2615 13.8223 64.449 9.16016 64.7361C7.23243 64.8591 6.74024 65.0095 6.125 65.6247C5.60547 66.1306 5.53711 66.363 5.60547 67.3337C5.71485 68.865 7.60157 69.9724 9.46094 69.5759C13.0156 68.824 23.1055 63.1091 29.4219 58.283C37.0781 52.4177 44.6113 43.9001 50.1348 34.863C52.1035 31.6365 54.7832 26.4412 55.918 23.6248C56.0957 23.1873 56.2598 22.8591 56.2871 22.8728C56.3555 22.9548 55.2754 26.5642 54.5508 28.6423C50.4082 40.5642 43.3398 51.8845 35.2871 59.4724L33.7285 60.949L34.3574 61.7693C36.7363 64.8591 41.2344 66.9099 46.0059 67.0876C47.4551 67.1423 48.0293 67.1013 49.1504 66.8689C54.3867 65.7888 58.8711 62.1931 62.1523 56.4372C64.5859 52.1716 66.1035 46.9216 66.8008 40.3318C67.0879 37.7205 67.1152 31.199 66.8691 28.2322C66.2129 20.2888 64.7363 12.6462 62.1113 3.6228C61.7012 2.18725 61.3184 0.970458 61.25 0.91577C61.1953 0.847411 61.0176 0.970458 60.8535 1.18921Z" fill="#2857C7"/>
</svg>
