<svg width="21" height="25" viewBox="0 0 21 25" fill="none" xmlns="http://www.w3.org/2000/svg">
<path d="M2.25 3.125H4.5V0.585938C4.5 0.263672 4.75312 0 5.0625 0H5.4375C5.74687 0 6 0.263672 6 0.585938V3.125H15V0.585938C15 0.263672 15.2531 0 15.5625 0H15.9375C16.2469 0 16.5 0.263672 16.5 0.585938V3.125H18.75C19.9922 3.125 21 4.1748 21 5.46875V22.6562C21 23.9502 19.9922 25 18.75 25H2.25C1.00781 25 0 23.9502 0 22.6562V5.46875C0 4.1748 1.00781 3.125 2.25 3.125ZM18.75 4.6875H2.25C1.8375 4.6875 1.5 5.03906 1.5 5.46875V7.8125H19.5V5.46875C19.5 5.03906 19.1625 4.6875 18.75 4.6875ZM2.25 23.4375H18.75C19.1625 23.4375 19.5 23.0859 19.5 22.6562V9.375H1.5V22.6562C1.5 23.0859 1.8375 23.4375 2.25 23.4375ZM14.0625 15.625H15.9375C16.2469 15.625 16.5 15.3613 16.5 15.0391V13.0859C16.5 12.7637 16.2469 12.5 15.9375 12.5H14.0625C13.7531 12.5 13.5 12.7637 13.5 13.0859V15.0391C13.5 15.3613 13.7531 15.625 14.0625 15.625ZM9.5625 15.625H11.4375C11.7469 15.625 12 15.3613 12 15.0391V13.0859C12 12.7637 11.7469 12.5 11.4375 12.5H9.5625C9.25313 12.5 9 12.7637 9 13.0859V15.0391C9 15.3613 9.25313 15.625 9.5625 15.625ZM5.0625 15.625H6.9375C7.24687 15.625 7.5 15.3613 7.5 15.0391V13.0859C7.5 12.7637 7.24687 12.5 6.9375 12.5H5.0625C4.75312 12.5 4.5 12.7637 4.5 13.0859V15.0391C4.5 15.3613 4.75312 15.625 5.0625 15.625ZM9.5625 20.3125H11.4375C11.7469 20.3125 12 20.0488 12 19.7266V17.7734C12 17.4512 11.7469 17.1875 11.4375 17.1875H9.5625C9.25313 17.1875 9 17.4512 9 17.7734V19.7266C9 20.0488 9.25313 20.3125 9.5625 20.3125ZM14.0625 20.3125H15.9375C16.2469 20.3125 16.5 20.0488 16.5 19.7266V17.7734C16.5 17.4512 16.2469 17.1875 15.9375 17.1875H14.0625C13.7531 17.1875 13.5 17.4512 13.5 17.7734V19.7266C13.5 20.0488 13.7531 20.3125 14.0625 20.3125ZM5.0625 20.3125H6.9375C7.24687 20.3125 7.5 20.0488 7.5 19.7266V17.7734C7.5 17.4512 7.24687 17.1875 6.9375 17.1875H5.0625C4.75312 17.1875 4.5 17.4512 4.5 17.7734V19.7266C4.5 20.0488 4.75312 20.3125 5.0625 20.3125Z" fill="#CACACA"/>
</svg>
