<svg width="24" height="17" viewBox="0 0 24 17" fill="none" xmlns="http://www.w3.org/2000/svg">
<path opacity="0.4" d="M18.0001 8.5C18.7121 8.5 19.4081 8.29106 20.0001 7.89961C20.5921 7.50816 21.0536 6.95177 21.326 6.30081C21.5985 5.64985 21.6698 4.93355 21.5309 4.24249C21.392 3.55143 21.0491 2.91666 20.5457 2.41843C20.0422 1.92021 19.4007 1.58091 18.7024 1.44345C18.0041 1.30599 17.2802 1.37654 16.6224 1.64618C15.9646 1.91582 15.4024 2.37243 15.0068 2.95828C14.6112 3.54413 14.4001 4.23291 14.4001 4.9375C14.4001 5.88233 14.7794 6.78847 15.4545 7.45657C16.1296 8.12467 17.0453 8.5 18.0001 8.5ZM19.8001 9.6875H19.6576C19.1363 9.86563 18.5851 9.98438 18.0001 9.98438C17.4151 9.98438 16.8638 9.86563 16.3426 9.6875H16.2001C15.4351 9.6875 14.7301 9.90645 14.1113 10.259C15.0263 11.235 15.6001 12.5301 15.6001 13.9625V15.3875C15.6001 15.4691 15.5813 15.5471 15.5776 15.625H22.2001C22.6775 15.625 23.1353 15.4373 23.4729 15.1033C23.8104 14.7692 24.0001 14.3162 24.0001 13.8437C24.0004 13.2979 23.8919 12.7573 23.681 12.2529C23.47 11.7485 23.1607 11.2902 22.7706 10.9042C22.3805 10.5182 21.9174 10.212 21.4077 10.0033C20.898 9.79451 20.3517 9.68721 19.8001 9.6875Z" fill="#CACACA"/>
<path d="M7.2 8.5C8.03068 8.5 8.84271 8.25624 9.53339 7.79955C10.2241 7.34285 10.7624 6.69374 11.0803 5.93428C11.3982 5.17483 11.4814 4.33914 11.3193 3.53291C11.1572 2.72667 10.7572 1.9861 10.1698 1.40484C9.58247 0.823577 8.8341 0.427733 8.01938 0.267363C7.20466 0.106993 6.36018 0.189301 5.59273 0.503878C4.82528 0.818454 4.16933 1.35117 3.70783 2.03466C3.24633 2.71816 3 3.52172 3 4.34375C2.9997 4.88964 3.10814 5.43024 3.3191 5.93463C3.53007 6.43902 3.83943 6.89732 4.22949 7.28332C4.61956 7.66932 5.08268 7.97546 5.59238 8.18422C6.10208 8.39299 6.64837 8.5003 7.2 8.5ZM10.08 9.6875H9.76875C8.96867 10.0745 8.09053 10.2775 7.2 10.2813C6.2775 10.2813 5.415 10.0586 4.63125 9.6875H4.32C3.17436 9.6878 2.07572 10.1383 1.26563 10.9399C0.455536 11.7416 0.000298228 12.8288 0 13.9625L0 15.0313C0 15.5037 0.189642 15.9567 0.527208 16.2908C0.864773 16.6248 1.32261 16.8125 1.8 16.8125H12.6C13.0774 16.8125 13.5352 16.6248 13.8728 16.2908C14.2104 15.9567 14.4 15.5037 14.4 15.0313V13.9625C14.3997 12.8288 13.9445 11.7416 13.1344 10.9399C12.3243 10.1383 11.2256 9.6878 10.08 9.6875Z" fill="#CACACA"/>
</svg>
