<svg width="93" height="80" viewBox="0 0 93 80" fill="none" xmlns="http://www.w3.org/2000/svg">
<path d="M19.3751 0.759813C5.75063 3.73656 -3.28587 19.2559 1.50363 31.473C3.54963 36.7133 4.09213 37.3335 26.0866 59.38L46.5001 79.8451L66.9136 59.38C91.7136 34.5273 92.2406 33.8296 92.6281 25.7676C93.7286 2.43423 66.1696 -8.0929 47.7091 8.60478L46.5001 9.69004L45.2911 8.60478C38.1456 2.13966 27.6521 -1.03864 19.3751 0.759813ZM29.5431 7.31796C34.1621 8.51175 39.3391 11.7056 43.6326 16.0311L46.5001 18.8994L49.3676 16.0311C60.0161 5.31796 72.5556 3.76756 80.8946 12.1087C86.8466 18.0466 87.8386 25.349 83.6536 32.4963C82.7701 34.0156 47.1046 70.5273 46.5001 70.5273C45.8956 70.5273 10.2301 34.0156 9.34663 32.4963C7.40913 29.1784 6.72713 27.0699 6.75813 24.4963C6.94413 12.9459 18.2746 4.38772 29.5431 7.31796Z" fill="#2857C7"/>
</svg>
