<svg width="80" height="80" viewBox="0 0 80 80" fill="none" xmlns="http://www.w3.org/2000/svg">
<g clip-path="url(#clip0)">
<path d="M13.6001 1.29345C13.6001 2.01345 13.4267 3.10679 13.2001 3.73345C12.9867 4.36012 12.8001 5.21345 12.8001 5.64012C12.8001 6.57345 12.6667 6.58678 10.8934 5.66678C9.17341 4.80011 9.08008 4.68012 9.06675 3.40011C9.06675 2.85345 8.94675 2.40011 8.80008 2.40011C8.65341 2.40011 8.53341 2.81345 8.53341 3.33345C8.53341 4.49345 8.32008 4.49345 6.44008 3.36012C4.86675 2.41345 3.37341 1.82678 3.86675 2.36012C4.28008 2.80011 7.41341 4.72012 8.98675 5.49345C9.76008 5.88012 10.4534 6.40011 10.5334 6.64012C10.6134 6.89345 11.0267 7.28012 11.4667 7.48012C12.2534 7.86678 18.6667 14.0401 18.6667 14.4135C18.6667 15.1734 15.5067 15.4001 13.3201 14.8001C12.5201 14.5734 10.5601 14.1601 8.97341 13.8801C5.70675 13.2934 5.10675 12.9868 4.08008 11.4268C3.68008 10.8268 3.30675 10.4801 3.24008 10.6668C3.18675 10.8401 3.50675 11.5201 3.97341 12.1734C4.97341 13.5868 4.97341 13.6001 4.13341 13.6001C3.77341 13.6001 3.46675 13.6934 3.46675 13.8001C3.46675 14.0535 6.54675 14.6668 7.74675 14.6668C8.80008 14.6668 8.54675 15.0934 7.34675 15.3068C6.65341 15.4401 6.24008 15.7601 5.66675 16.6135C5.08008 17.4801 4.70675 17.7601 3.98675 17.8668C2.74675 18.0535 1.33341 18.8535 1.33341 19.3868C1.33341 19.7734 1.37341 19.7734 1.80008 19.4001C2.05341 19.1601 2.60008 18.9068 3.00008 18.8268C3.40008 18.7335 4.00008 18.6135 4.33341 18.5468C4.66675 18.4801 5.53341 17.8401 6.26675 17.1335C7.92008 15.5335 10.1201 14.8268 11.2267 15.5468C12.2534 16.2135 16.8801 16.4268 18.4534 15.8801C22.0001 14.6668 25.5867 16.4801 25.6134 19.4935C25.6267 21.1601 25.8534 21.6401 27.4134 23.3068C28.0534 23.9868 28.4801 24.6668 28.3867 24.8268C28.2934 24.9734 28.4534 25.3734 28.7601 25.6801C29.9867 27.0001 30.0934 28.6535 29.0801 30.5468C28.1467 32.3068 27.7067 32.6401 25.4667 33.3335C23.1867 34.0535 21.2134 35.5735 19.6801 37.8001C18.1334 40.0668 17.5067 40.2668 11.9867 40.2668C6.80008 40.2668 6.33341 40.3601 5.06675 41.7335C4.06675 42.8135 3.12008 43.2001 1.48008 43.2001H7.83715e-05V44.1335C7.83715e-05 45.2535 -0.119922 45.2401 1.94675 44.3735C2.85341 43.9868 4.02675 43.6268 4.53341 43.5868C9.06675 43.1601 9.20008 43.1735 11.3334 43.7468C12.5067 44.0535 14.4801 44.4001 15.7067 44.4935L17.9467 44.6668L17.2134 45.5335C15.7601 47.2668 13.6934 48.1201 8.93341 48.9601C7.61341 49.1868 5.45341 49.8268 4.13341 50.3735C2.81341 50.9335 1.34675 51.5335 0.866745 51.7201C0.320078 51.9335 7.83715e-05 52.2535 7.83715e-05 52.5601C7.83715e-05 53.1868 -0.053255 53.1868 1.60008 52.5335C2.34675 52.2401 3.01341 52.0001 3.10675 52.0001C3.29341 52.0001 3.06675 54.8935 2.80008 55.7335L2.58675 56.4001L3.29341 55.7601C3.88008 55.2135 4.00008 54.8801 4.00008 53.7335C4.00008 51.4935 5.10675 50.8668 10.9334 49.7735C15.1201 48.9868 16.4934 48.3068 18.5067 46.0268L20.0401 44.2668L21.9601 44.2801C23.2134 44.2801 24.0401 44.4135 24.3867 44.6801C24.6667 44.8935 25.2134 45.0668 25.6001 45.0668C26.8001 45.0668 29.1201 46.4401 30.0934 47.7201C31.1867 49.1735 31.1601 49.6268 29.6401 53.8668C28.5601 56.8935 28.2667 58.8935 28.7867 59.7201C29.1067 60.2268 29.2401 59.8668 29.4134 58.1068C29.4667 57.4401 30.0001 55.8801 30.5867 54.6401C32.2134 51.1868 32.3467 50.7601 32.1601 49.6001C31.9734 48.3735 32.0534 48.3335 33.8801 48.9868C34.9867 49.3868 35.3734 49.4001 36.7334 49.1201C41.1201 48.2135 43.7601 49.6135 45.6534 53.8268C46.0934 54.8001 46.6801 55.8401 46.9467 56.1335C47.8801 57.1601 49.4001 60.8135 49.2534 61.7068C49.1334 62.4268 48.2001 64.6668 47.5201 65.8668C45.8801 68.7468 45.0534 72.2935 45.0934 76.2268L45.1201 78.8001L45.4534 76.1335C45.7867 73.3068 46.2801 71.4668 46.6934 71.4668C46.8267 71.4668 46.9334 71.0935 46.9334 70.6535C46.9334 70.2001 47.2534 69.1468 47.6401 68.3201C48.0267 67.4801 48.7467 65.9201 49.2401 64.8535C50.2667 62.6001 50.3734 61.2135 49.6134 59.5601C48.9867 58.1735 49.1334 58.0001 50.2934 58.7468C51.4401 59.4935 51.9467 60.7601 52.2534 63.6801C52.4001 64.9601 52.6401 66.4135 52.7868 66.9335C52.9467 67.4401 53.0001 68.4668 52.9334 69.2001C52.8134 70.3201 52.8401 70.4268 53.0801 69.8668C53.4934 68.8935 53.8934 69.7068 54.0667 71.8935C54.2001 73.5601 54.6667 74.0401 54.6667 72.5201C54.6667 71.3601 54.9734 71.5468 56.2001 73.4001C57.6401 75.5868 57.8667 76.2401 57.8667 78.2801C57.8667 79.6268 57.9468 80.0001 58.2667 80.0001C59.6134 80.0001 58.6401 75.6935 56.5468 72.3201C55.8134 71.1201 55.2001 70.0668 55.2001 69.9868C55.2001 69.9068 54.8934 69.1735 54.5334 68.3735C54.0934 67.4135 53.9201 66.6801 54.0267 66.2401C54.1334 65.8135 54.0534 65.4135 53.7868 65.1201C52.7201 63.9468 52.5868 59.7335 53.5068 56.1335C54.2667 53.1735 53.9201 50.4401 52.5334 48.4801C50.0801 45.0001 51.1201 41.8935 56.0534 37.9601C58.2667 36.2001 58.6668 35.2001 58.1868 32.8268C56.9468 26.8535 58.8134 23.8668 67.2268 18.4401C69.5068 16.9734 71.7068 15.6135 72.0934 15.4401C73.5734 14.7601 72.4134 13.8001 70.8534 14.4135C70.3868 14.6001 69.4268 15.1068 68.7201 15.5468C67.1468 16.5201 66.9601 16.3734 67.8801 14.9068C69.7334 11.9734 72.1601 10.0135 76.7868 7.70679C79.7868 6.21345 80.0001 6.05345 80.0001 5.33345V4.56012L77.4001 5.76012C75.9734 6.42678 73.7468 7.68012 72.4668 8.54678C71.1868 9.40011 70.1334 9.96012 70.1334 9.78678C70.1468 9.61345 70.4668 8.02678 70.8534 6.26678C71.6001 2.84012 71.8001 0.000114775 71.3068 0.000114775C70.9334 0.000114775 70.2801 2.22678 70.4801 2.77345C70.5601 2.97345 70.5334 3.54678 70.4001 4.04012C70.2801 4.53345 69.8668 6.06678 69.5068 7.46678C69.1334 8.85345 68.7601 10.3068 68.6934 10.6934C68.6134 11.0801 67.9468 11.8934 67.1868 12.5601C66.4268 13.2001 65.0801 14.4801 64.1734 15.3868C61.4001 18.2001 59.1601 18.5868 56.1601 16.7734C54.4667 15.7468 54.2667 15.6934 52.8401 15.8401C45.4401 16.5868 42.8134 16.3201 39.4801 14.4668L37.7601 13.5201L32.4667 13.8535C25.5867 14.3068 22.7067 14.1068 21.0667 13.0668C20.4134 12.6401 19.5334 12.2268 19.1067 12.1201C18.6934 12.0135 17.4401 11.1068 16.3067 10.0801C15.1867 9.06678 14.1201 8.12012 13.9334 7.97345C13.3334 7.50679 13.2534 6.36012 13.6934 4.94678C14.1734 3.41345 14.2934 0.000114775 13.8667 0.000114775C13.7201 0.000114775 13.6001 0.586785 13.6001 1.29345Z" fill="#2857C7"/>
<path d="M44.3114 40.761C46.7276 39.7454 47.3632 35.7741 45.731 31.8909C44.0988 28.0076 40.8169 25.6829 38.4006 26.6985C35.9844 27.7141 35.3488 31.6854 36.981 35.5687C38.6132 39.4519 41.8951 41.7766 44.3114 40.761Z" fill="white"/>
</g>
<defs>
<clipPath id="clip0">
<rect y="0.000976562" width="80" height="80" fill="white"/>
</clipPath>
</defs>
</svg>
