<svg width="75" height="83" viewBox="0 0 75 83" fill="none" xmlns="http://www.w3.org/2000/svg">
<path d="M0.149902 29.1885V58.3768H20.3189H40.5156L41.0412 59.8155C41.3456 60.6178 42.4246 63.6058 43.4759 66.4831C45.5509 72.1825 46.4086 73.6211 48.6772 75.1705C49.4519 75.6961 50.5862 76.2495 51.2502 76.4431L52.4399 76.7475L53.4636 79.8738L54.4872 83.0001H63.1469H71.7789L69.7316 77.0795L67.6842 71.1588L68.3482 70.2181C70.0636 67.6728 70.3402 64.2975 69.0676 60.6731L68.2652 58.3768H71.5576H74.8499V29.1885V0.000120834H37.4999H0.149902V29.1885ZM72.9132 29.1885V56.1635H70.1742H67.4352L65.7752 51.6538C64.8622 49.1915 63.5342 45.5118 62.8149 43.4921C62.0679 41.4171 61.3486 39.8401 61.1272 39.8401C60.3802 39.8401 58.3606 41.7215 57.5859 43.1325C56.3409 45.4288 56.4792 47.0888 58.2222 51.7921C58.9969 53.8948 59.6332 55.7208 59.6332 55.8868C59.6332 56.0805 50.0052 56.1635 30.9982 56.1635H2.36324V29.1885V2.21345H37.6382H72.9132V29.1885Z" fill="#2857C7"/>
<path d="M34.4567 9.13015V10.2368H28.9787C23.9987 10.2368 23.4454 10.2922 23.0304 10.7348C22.4217 11.3988 22.4494 11.9798 23.0581 12.5332C23.5007 12.9482 24.3307 13.0035 29.0064 13.0035H34.4567V15.0785V17.1535H27.457C22.394 17.1535 20.3744 17.2365 20.1254 17.4855C19.6827 17.9282 19.7104 18.9518 20.1531 19.3392C20.4021 19.5328 22.892 19.6712 27.4294 19.6988L34.3184 19.7818L34.4014 21.7738L34.4844 23.7935H27.2634C22.809 23.7935 19.8211 23.9042 19.4891 24.0702C18.8804 24.4022 18.7697 25.7025 19.2954 26.2282C19.5444 26.4772 21.647 26.5602 27.042 26.5602H34.4567V28.6352V30.7102H27.8444C22.2004 30.7102 21.1491 30.7655 20.7894 31.1528C20.2637 31.6785 20.2361 32.1212 20.7064 32.7298C21.0107 33.1448 21.8407 33.2002 27.6784 33.2555L34.3184 33.3385L34.4014 35.3305L34.4844 37.3502H28.3147C20.319 37.3502 20.7617 37.1012 20.9831 41.4725C21.2321 46.3972 21.9791 48.1678 24.0817 48.9702C25.9631 49.6895 27.7337 48.4445 29.5044 45.2352C30.9154 42.6622 32.1604 41.0575 33.1287 40.5872C33.6267 40.3382 34.1247 40.2275 34.2354 40.2828C34.346 40.3658 34.4567 42.1642 34.4567 44.2945V48.1402H37.6384H40.82V44.2668C40.82 40.6148 40.8477 40.3935 41.3457 40.3935C42.2034 40.3935 43.6697 41.9982 45.302 44.8202C47.3217 48.2508 48.207 49.1085 49.8117 49.1085C52.4124 49.1085 53.685 47.1442 54.1277 42.3302C54.4597 38.7058 54.349 37.9865 53.3807 37.6268C52.9934 37.4608 50.0054 37.3502 46.7407 37.3502H40.7924L40.8754 35.3305L40.9584 33.3385L47.6537 33.2555C54.1 33.2002 54.3767 33.1725 54.6534 32.6192C54.9024 32.1765 54.8747 31.8998 54.515 31.3742L54.1 30.7102H47.46H40.82V28.6352V26.5602H48.2347C53.6297 26.5602 55.7324 26.4772 55.9814 26.2282C56.507 25.7025 56.3964 24.4022 55.7877 24.0702C55.4557 23.9042 52.4677 23.7935 48.041 23.7935H40.82V21.7185V19.6435H47.8197C55.179 19.6435 55.4834 19.5882 55.4834 18.3985C55.4834 17.2088 55.179 17.1535 47.8197 17.1535H40.82V15.0785V13.0035H46.3257C51.7207 13.0035 51.859 12.9758 52.274 12.3948C52.8274 11.5925 52.8274 11.4541 52.1634 10.7902C51.6377 10.2645 51.2504 10.2368 46.215 10.2368H40.82V9.13015V8.02348H37.6384H34.4567V9.13015Z" fill="#2857C7"/>
</svg>
