<svg width="80" height="80" viewBox="0 0 80 80" fill="none" xmlns="http://www.w3.org/2000/svg">
<path d="M14.1334 0.40014C5.06673 2.90681 -1.07994 13.8801 0.24006 25.2535C2.37339 43.5735 16.8934 53.4801 26.5201 43.1868C30.0401 39.4268 30.2934 31.4668 26.9067 31.4668C25.9867 31.4668 24.1734 32.1601 24.3201 32.4668C26.5867 36.9068 25.5467 40.4001 21.3201 42.5468C16.0001 45.2268 10.6267 42.3468 6.92006 34.8001C2.08006 24.9735 2.94673 14.4801 9.13339 7.85348C16.5201 -0.0531928 28.2801 4.56014 25.7601 14.3735C25.5201 15.3201 25.3601 16.1068 25.4001 16.1468C25.6267 16.3335 28.2934 17.6001 28.4801 17.6001C29.3334 17.6001 30.1467 11.7468 29.6267 9.34681C28.2401 2.90681 20.7467 -1.41319 14.1334 0.40014Z" fill="#2857C7"/>
<path d="M59.4668 0.40014C52.3468 2.36014 48.9201 8.02681 50.5468 15.1468C51.1601 17.8535 51.1601 17.8535 53.0534 16.9468C53.9334 16.5201 54.6668 16.1201 54.6668 16.0535C54.6668 16.0001 54.4668 15.2801 54.2401 14.4668C51.4534 4.88014 63.4401 -0.0265266 70.7468 7.70681C78.7734 16.2268 77.3868 34.2135 68.1468 41.4135C61.5734 46.5468 51.5468 40.6401 55.0668 33.7068C55.8268 32.2135 55.6534 31.8935 53.9601 31.5735C49.7201 30.7735 49.4934 38.9601 53.6268 43.3335C63.5868 53.8668 78.4401 42.6801 79.8934 23.5601C80.9201 9.9068 69.9868 -2.49319 59.4668 0.40014Z" fill="#2857C7"/>
<path d="M15.7868 12.5868C14.3468 14.0268 17.9601 18.2401 22.4001 20.3068C35.2001 26.3068 35.4935 26.8668 35.6668 45.8668C35.7468 53.6268 35.8801 58.1201 36.0535 58.3335C36.4401 58.8001 43.5601 58.8001 43.9468 58.3335C44.1201 58.1201 44.2668 53.6401 44.3335 45.7335C44.5068 26.8001 44.7601 26.3201 57.6401 20.2935C61.8935 18.3068 65.4935 14.1468 64.2668 12.6668C63.5868 11.8401 62.7335 12.1868 61.7735 13.6801C60.5068 15.6668 59.0135 16.8401 55.7601 18.4268C51.7601 20.3735 49.8535 20.3335 49.0668 18.2801C48.4935 16.7468 46.6668 16.9201 46.6668 18.5201C46.6668 19.2668 46.9068 19.7068 47.8135 20.6535L48.9468 21.8401L47.6801 22.7868C45.2668 24.6001 43.4001 27.5201 42.4935 30.9868C42.1068 32.4001 42.0268 34.5068 41.9335 44.4668L41.8268 56.2668H40.0001H38.1735L38.0668 44.4668C37.9601 31.5468 37.9335 31.3735 36.2401 27.7468C35.2801 25.6668 33.9601 24.0135 32.2535 22.7468L30.9868 21.7868L31.7735 21.1335C33.3335 19.8135 33.8535 17.7735 32.7335 17.3601C31.9735 17.0668 31.2535 17.4401 30.9335 18.2801C30.1601 20.3201 28.2535 20.3601 24.2668 18.4535C21.0535 16.9068 19.5068 15.6935 18.2268 13.6801C17.2935 12.2268 16.5068 11.8668 15.7868 12.5868Z" fill="#2857C7"/>
<path d="M9.53339 14.6934C7.85339 15.6668 11.6534 20.1468 16.1067 22.4401L18.4667 23.6668L16.5067 24.2535C14.0534 24.9868 11.2534 26.4401 10.2534 27.4801C8.72006 29.0801 10.4934 30.3468 12.3467 28.9601C15.5334 26.5734 22.6267 24.9734 24.8134 26.1468C25.4001 26.4535 25.3601 26.4935 23.8401 27.0401C20.2001 28.3601 17.1067 31.4801 17.7601 33.1735C18.0934 34.0535 19.1734 33.6401 20.7334 32.0535C24.1734 28.5468 28.6401 27.9335 30.3467 30.7335C31.7201 32.9735 31.8134 33.7735 31.9334 45.6401L32.0534 56.7468L30.4934 57.2001C19.6267 60.3335 22.3467 72.5201 34.5867 75.5468L36.8001 76.0935V77.6001C36.8001 79.1868 37.2801 80.0001 38.2001 80.0001C39.3601 80.0001 39.8801 77.2401 39.0934 75.3468C38.6001 74.1601 37.9201 73.7601 35.2934 73.1068C24.9467 70.5468 22.7601 61.4135 32.0001 59.4268C34.6401 58.8668 34.4401 60.0135 34.3467 46.0135C34.2667 34.0668 34.2401 33.6935 33.6667 32.0668C31.9334 27.2535 29.1867 24.9868 21.4934 22.0135C16.2134 19.9734 13.9201 18.4401 11.2667 15.1335C10.6267 14.3468 10.2667 14.2535 9.53339 14.6934Z" fill="#2857C7"/>
<path d="M68.6135 15.2668C65.7735 18.6401 63.6935 20.0401 58.7468 21.8935C50.4802 25.0001 47.1602 28.0135 46.0002 33.4668C45.5735 35.5201 45.4002 57.9468 45.8135 58.6001C45.9335 58.7735 46.9868 59.1735 48.1468 59.4668C57.1735 61.7735 54.9602 70.5601 44.7202 73.1068C43.5202 73.4135 42.2535 73.8268 41.9068 74.0535C40.1335 75.1735 40.0668 80.0001 41.8268 80.0001C42.5735 80.0001 42.9335 79.4401 42.9335 78.2801C42.9468 76.2135 43.0535 76.0801 45.2402 75.6001C57.4535 72.8801 60.3468 60.3468 49.5068 57.2001L47.9602 56.7468L48.0668 45.6401C48.1868 33.7601 48.2668 33.0001 49.6535 30.7335C51.3602 27.9335 55.8535 28.5601 59.2402 32.0535C60.7202 33.5868 61.4535 33.9068 62.0802 33.2801C63.4002 31.9601 59.6002 28.1201 55.8002 26.9335L54.2668 26.4535L55.0668 26.1335C57.7468 25.0535 64.4402 26.5601 67.6535 28.9601C68.8268 29.8535 70.4002 29.6001 70.4002 28.5335C70.4002 27.4535 66.9068 25.2801 63.4935 24.2535L61.5335 23.6668L63.7602 22.5068C68.4268 20.0935 72.2135 15.6401 70.4135 14.6801C69.6268 14.2535 69.4002 14.3335 68.6135 15.2668Z" fill="#2857C7"/>
<path d="M28.9467 65.6667C29.72 68.2134 32.4667 70.0534 36.8667 70.9601C37.64 71.1201 38.6533 71.4801 39.1333 71.7467C39.9733 72.2401 40.0267 72.2401 40.8667 71.7601C41.3467 71.4801 42.64 71.0534 43.7334 70.7867C48 69.7734 50.2934 68.1734 51.0534 65.6667L51.24 65.0667H40H28.76L28.9467 65.6667Z" fill="#2857C7"/>
</svg>
