<svg width="99" height="86" viewBox="0 0 99 86" fill="none" xmlns="http://www.w3.org/2000/svg">
<path d="M5.76673 0.466783C3.7334 1.13345 2.56673 2.06678 1.50006 4.06678C0.600064 5.66678 0.500064 6.20011 0.400064 9.50011C0.300064 12.7001 0.400063 13.7001 1.30006 17.3335C1.86673 19.6001 2.3334 21.7335 2.3334 22.0335C2.3334 22.3668 1.80006 23.6335 1.1334 24.8335C0.500064 26.0668 0.0333968 27.2668 0.133397 27.5335C0.600064 28.7668 3.86673 29.8668 5.60006 29.3668L6.60006 29.0668L6.6334 30.9001C6.66673 34.3668 9.60006 38.9668 12.5334 40.2001C17.8334 42.4001 21.0334 37.3334 18.2334 31.2001C16.8001 28.1001 13.7001 25.3335 11.6334 25.3335C11.0667 25.3335 10.9667 25.2001 11.1334 24.5668C11.2667 24.1668 11.4667 23.2335 11.5667 22.5001C11.7334 21.2001 11.6667 21.1001 9.7334 19.4335C6.76673 16.8335 5.60006 13.7001 6.3334 10.2001C6.86673 7.56678 7.90006 6.20011 9.40006 6.06678C11.2001 5.90011 12.7001 7.60011 15.9667 13.4001C19.6001 19.8001 21.2001 21.6001 25.0334 23.5335C28.5334 25.2668 30.3334 26.8001 31.2667 28.7668C31.6334 29.5335 32.4001 32.6668 33.0001 35.6668C34.4667 43.3334 35.5334 47.4334 36.7001 49.7001C37.5334 51.3668 39.5001 57.6668 39.2334 57.8668C39.2001 57.9001 38.6667 58.1668 38.1001 58.4668C36.8001 59.1334 36.0001 60.5334 36.0001 62.1668C36.0001 62.8001 36.7667 65.4001 37.7001 67.9334C38.9667 71.3334 39.4667 73.2334 39.6667 75.3334C40.0667 79.5334 41.2667 84.2668 42.0001 84.6668C43.2001 85.3001 48.8667 85.6668 52.1001 85.3334C56.4001 84.8668 56.6001 84.8001 57.0001 83.3668C57.8334 80.2334 58.3667 77.5001 58.6667 74.8001C58.9001 72.5668 59.3667 70.8334 60.5334 67.8334C61.6667 64.9668 62.1001 63.3334 62.1334 62.0668C62.1667 60.4334 62.0667 60.2001 60.9667 59.2001C60.3001 58.6001 59.5667 58.0334 59.3334 57.9334C58.7001 57.7334 59.9001 53.2334 61.5001 49.7001C62.9667 46.3668 63.4001 44.7668 65.0001 36.7001C66.8667 27.3001 67.3001 26.5335 72.8667 23.7335C74.3334 23.0001 76.0001 22.0001 76.5667 21.5335C77.8667 20.4335 80.3334 16.8001 83.0001 12.0668C85.5667 7.50011 87.1334 5.90011 88.9334 6.06678C90.0001 6.16678 90.2667 6.36678 91.0001 7.66678C91.7001 8.93345 91.8334 9.60011 91.8334 12.0001C91.8334 15.5668 90.9334 17.5668 88.5001 19.4001C86.2334 21.1001 86.0334 21.9668 87.1667 24.7335C87.3667 25.2001 87.2334 25.3335 86.6667 25.3335C84.6001 25.3335 81.6001 27.8001 80.1334 30.7335C79.0667 32.8335 78.6667 36.4001 79.3334 38.0001C80.0334 39.6668 81.5001 40.6668 83.2001 40.6668C85.1334 40.6668 86.8334 39.7668 88.6334 37.8334C90.4334 35.8668 91.3667 33.7668 91.6001 31.1335L91.7667 29.0668L92.7001 29.4001C93.9667 29.8335 97.1001 28.9335 97.8001 27.9335C98.2667 27.2668 98.2334 27.0668 97.1667 25.1335C95.7334 22.5668 95.7001 21.9001 97.0334 16.4335C97.9334 12.8335 98.0667 11.7335 97.9334 9.33345C97.5667 3.16678 94.9001 0.166783 89.6667 0.166783C86.9667 0.166783 85.4001 0.766783 82.9667 2.73345C81.4667 3.93345 78.9334 7.33345 76.8001 10.9668C72.8667 17.6335 68.6667 19.8668 64.1667 17.6001C60.8667 15.9335 55.8001 14.6001 51.1334 14.1668C46.9667 13.7335 38.7334 15.2668 35.1001 17.1335C34.2001 17.5668 32.8334 18.1001 32.0667 18.3335C28.8667 19.1668 25.1667 16.9335 22.3334 12.4335C18.7334 6.73345 17.1334 4.53345 15.4001 3.00011C12.3667 0.300115 9.10006 -0.566548 5.76673 0.466783ZM58.1334 23.0001C61.2334 23.2001 63.9001 23.4335 64.1001 23.5668C64.2667 23.6668 63.6001 24.0335 62.5667 24.3335C60.4334 25.0001 58.3667 26.4001 57.4001 27.8335C56.6001 29.0001 52.8334 40.0668 52.1334 43.3001C51.8667 44.5001 51.5001 48.2668 51.3001 51.6668C51.1001 55.0668 50.7667 58.8668 50.5667 60.1668C50.2001 62.3668 50.1001 62.5001 49.2667 62.6001C48.5334 62.7001 48.2667 62.5334 48.0334 61.9334C47.6001 60.8001 47.0667 55.8334 46.8334 50.8334C46.7001 48.4334 46.4001 45.4001 46.1667 44.0668C45.5001 40.6334 41.8001 29.4001 40.8001 27.9335C39.8334 26.4335 37.9001 25.1001 35.5667 24.3001C33.3001 23.5335 33.8001 23.3668 39.3667 23.0335C45.9667 22.6335 51.8001 22.6335 58.1334 23.0001Z" fill="#2857C7"/>
</svg>
